<svg width="1762" height="13" viewBox="0 0 1762 13" fill="none" xmlns="http://www.w3.org/2000/svg">
<path d="M1 2C14.3333 15.3333 27.6667 15.3333 41 2C54.3333 15.3333 67.6667 15.3333 81 2C94.3333 15.3333 107.667 15.3333 121 2C134.333 15.3333 147.667 15.3333 161 2C174.333 15.3333 187.667 15.3333 201 2C214.333 15.3333 227.667 15.3333 241 2C254.333 15.3333 267.667 15.3333 281 2C294.333 15.3333 307.667 15.3333 321 2C334.333 15.3333 347.667 15.3333 361 2C374.333 15.3333 387.667 15.3333 401 2C414.333 15.3333 427.667 15.3333 441 2C454.333 15.3333 467.667 15.3333 481 2C494.333 15.3333 507.667 15.3333 521 2C534.333 15.3333 547.667 15.3333 561 2C574.333 15.3333 587.667 15.3333 601 2C614.333 15.3333 627.667 15.3333 641 2C654.333 15.3333 667.667 15.3333 681 2C694.333 15.3333 707.667 15.3333 721 2C734.333 15.3333 747.667 15.3333 761 2C774.333 15.3333 787.667 15.3333 801 2C814.333 15.3333 827.667 15.3333 841 2C854.333 15.3333 867.667 15.3333 881 2C894.333 15.3333 907.667 15.3333 921 2C934.333 15.3333 947.667 15.3333 961 2C974.333 15.3333 987.667 15.3333 1001 2C1014.33 15.3333 1027.67 15.3333 1041 2C1054.33 15.3333 1067.67 15.3333 1081 2C1094.33 15.3333 1107.67 15.3333 1121 2C1134.33 15.3333 1147.67 15.3333 1161 2C1174.33 15.3333 1187.67 15.3333 1201 2C1214.33 15.3333 1227.67 15.3333 1241 2C1254.33 15.3333 1267.67 15.3333 1281 2C1294.33 15.3333 1307.67 15.3333 1321 2C1334.33 15.3333 1347.67 15.3333 1361 2C1374.33 15.3333 1387.67 15.3333 1401 2C1414.33 15.3333 1427.67 15.3333 1441 2C1454.33 15.3333 1467.67 15.3333 1481 2C1494.33 15.3333 1507.67 15.3333 1521 2C1534.33 15.3333 1547.67 15.3333 1561 2C1574.33 15.3333 1587.67 15.3333 1601 2C1614.33 15.3333 1627.67 15.3333 1641 2C1654.33 15.3333 1667.67 15.3333 1681 2C1694.33 15.3333 1707.67 15.3333 1721 2C1734.33 15.3333 1747.67 15.3333 1761 2" stroke="#41BA7E" stroke-width="2"/>
</svg>
